# xmcd CD database file
#
# Track frame offsets:
#	150
#	10679
#	34924
#	56017
#	79221
#	98928
#	117392
#	126243
#	141958
#	157661
#	175429
#	196262
#	224391
#	242866
#	266881
#	274731
#
# Disc length: 3777 seconds
#
# Revision: 0
# Processed by: cddbd v1.5.2PL0 Copyright (c) Steve Scherf et al.
# Submitted via: CDex 1.70beta2
#
DISCID=eb0ebf10
DTITLE=MURATA Yoichi - SOLID BRASS
DYEAR=1991
DGENRE=Jazz
TTITLE0=MIZUTANI
TTITLE1=Landscape
TTITLE2=10 Feet High
TTITLE3=Prodigal Son
TTITLE4=After Image
TTITLE5=Ska
TTITLE6=Night and Day
TTITLE7=Well You Needn't
TTITLE8=Caravan
TTITLE9=Chelsea Bridge
TTITLE10=Smoke and Cloud
TTITLE11=Jazz Men
TTITLE12=Ska (demo ver.)
TTITLE13=Jazz Men (demo ver.)
TTITLE14=Night and Day (demo ver.)
TTITLE15=Chelsea Bridge (demo ver.)
EXTD=YEAR: 1991
EXTT0=
EXTT1=
EXTT2=
EXTT3=
EXTT4=
EXTT5=
EXTT6=
EXTT7=
EXTT8=
EXTT9=
EXTT10=
EXTT11=
EXTT12=
EXTT13=
EXTT14=
EXTT15=
PLAYORDER=
